<svg xmlns="http://www.w3.org/2000/svg" width="104" height="25" viewBox="0 0 27.517 6.615" xmlns:v="https://vecta.io/nano"><defs><linearGradient id="A" x1="23.216" y1="4.878" x2="25.942" y2="-.371" gradientUnits="userSpaceOnUse"><stop offset="0" stop-color="#3771c8"/><stop offset="1" stop-color="#3771c8" stop-opacity="0"/></linearGradient></defs><path fill="#ddcdff" fill-rule="evenodd" d="M0 0h27.517v6.615H0z"/><path d="M15.935 7.613c-.049-.161-.091-.239-.135-.253-.036-.011-.091-.012-.123-.002s-.1.093-.152.185-.108.176-.127.187-.072.012-.119 0c-.084-.021-.085-.027-.074-.277s.009-.258-.077-.306-.096-.044-.278.093-.192.141-.271.089c-.045-.03-.082-.068-.082-.087a1.06 1.06 0 0 1 .103-.215c.068-.12.095-.206.082-.25-.011-.037-.048-.082-.08-.099-.039-.021-.13-.013-.27.022-.202.051-.214.05-.257-.008-.025-.034-.045-.08-.045-.103s.075-.104.167-.181c.107-.089.167-.166.167-.212a.26.26 0 0 0-.028-.115c-.015-.023-.124-.058-.242-.077s-.227-.047-.243-.062-.023-.063-.017-.107c.009-.065.051-.092.228-.149.172-.055.224-.088.248-.157.022-.061.018-.102-.013-.139a.98.98 0 0 0-.206-.141c-.119-.065-.163-.109-.163-.163 0-.041.021-.092.046-.113s.137-.035.274-.029c.214.009.23.004.276-.077s.042-.095-.094-.276c-.126-.167-.138-.196-.098-.248a.56.56 0 0 1 .078-.082c.018-.013.115.021.215.075s.207.099.238.099.082-.029.114-.065c.054-.06.055-.076.005-.248-.029-.101-.053-.205-.053-.231s.041-.067.091-.09c.084-.038.098-.034.17.053l.159.189c.062.073.098.089.156.071a.34.34 0 0 0 .102-.047c.015-.013.043-.123.063-.244.029-.173.051-.223.102-.237a.22.22 0 0 1 .113.001c.025.01.071.103.101.207a1.07 1.07 0 0 0 .087.23c.018.023.076.042.127.042.079 0 .11-.03.2-.186.059-.103.126-.194.15-.203s.076 0 .114.021c.063.034.07.062.061.294-.009.25-.007.257.079.288.076.027.113.014.255-.09.092-.067.189-.122.215-.122s.074.028.105.061c.052.057.049.073-.045.242-.055.1-.1.205-.1.234s.03.081.067.114c.064.058.077.058.267.005l.216-.056c.009 0 .042.039.074.088.057.088.057.088-.138.261s-.195.174-.148.272c.041.087.071.102.264.132.217.034.217.034.217.147s-.006.116-.217.184c-.202.065-.218.078-.228.175s.006.115.192.228c.111.068.202.142.202.164s-.021.069-.045.103c-.039.053-.076.059-.264.041s-.227-.011-.272.039c-.03.033-.054.082-.054.111s.054.122.12.208c.087.115.115.178.101.235-.011.043-.045.087-.075.099s-.13-.021-.234-.08c-.099-.055-.199-.101-.224-.101s-.072.03-.106.066c-.056.062-.056.079-.007.275.048.191.048.214-.001.268-.03.033-.078.059-.108.059s-.113-.075-.182-.167c-.099-.13-.148-.167-.22-.167-.051 0-.108.019-.126.042s-.045.125-.057.226-.039.203-.057.226-.069.042-.113.042c-.068 0-.088-.031-.149-.233zm.303-1.447c.061-.041.14-.115.176-.163s.072-.154.082-.235a.57.57 0 0 0-.033-.267c-.028-.066-.107-.163-.176-.216-.106-.08-.158-.096-.319-.096-.143 0-.217.018-.287.07a.9.9 0 0 0-.17.18c-.053.078-.075.159-.075.277 0 .109.023.205.068.277a.68.68 0 0 0 .176.179c.072.046.164.069.278.069.123 0 .202-.021.281-.075zm3.055-.418c-.021-.013-.046-.115-.057-.224-.014-.134-.039-.214-.078-.242a.27.27 0 0 0-.137-.042c-.059 0-.106.043-.183.167s-.125.167-.178.167c-.041 0-.093-.022-.115-.049-.031-.038-.031-.089.001-.234.037-.165.036-.192-.016-.249-.032-.035-.088-.072-.126-.081-.048-.012-.11.021-.211.114-.078.072-.162.131-.186.131s-.071-.024-.103-.054c-.057-.052-.056-.061.023-.216.045-.089.083-.192.083-.228s-.039-.096-.087-.134c-.087-.069-.087-.069-.274.03-.174.092-.191.095-.247.044-.033-.03-.06-.077-.06-.104s.059-.114.131-.192c.092-.1.126-.163.114-.211-.01-.037-.045-.093-.079-.123-.053-.048-.085-.05-.249-.016-.145.03-.199.03-.237-.001-.026-.022-.048-.074-.048-.115 0-.053.048-.104.167-.178s.167-.124.167-.182a.27.27 0 0 0-.044-.138c-.03-.041-.107-.065-.251-.078-.185-.017-.21-.028-.228-.1-.011-.045-.007-.095.01-.112s.113-.059.213-.093c.183-.062.183-.062.183-.206s0-.144-.167-.192c-.092-.026-.188-.068-.213-.093s-.038-.076-.024-.131c.021-.081.034-.086.22-.086.167 0 .206-.012.25-.074.029-.041.052-.109.052-.151 0-.056-.045-.104-.167-.179s-.167-.124-.167-.179c0-.042.019-.093.044-.113.032-.026.101-.026.251.002.191.035.211.033.255-.026.026-.035.055-.09.063-.122s-.037-.117-.117-.209c-.074-.083-.128-.176-.122-.206s.037-.072.068-.091c.045-.028.1-.016.247.057.189.093.189.093.269.018.044-.041.079-.104.079-.141s-.039-.133-.086-.214c-.083-.141-.084-.15-.029-.212.032-.035.08-.064.108-.064s.114.059.192.131c.1.092.163.126.211.114.038-.01.093-.045.123-.079.048-.053.051-.085.016-.249-.031-.148-.03-.199.003-.238.023-.028.074-.046.111-.04s.111.076.17.168c.077.121.121.158.186.159.047 0 .111-.018.142-.041.037-.028.064-.113.078-.251.019-.186.031-.212.103-.23.045-.011.095-.007.111.01s.059.113.093.213c.062.183.062.183.208.183s.146 0 .197-.174c.029-.096.069-.192.091-.213s.076-.03.125-.017c.079.02.086.035.086.213 0 .105.013.211.028.235s.082.052.149.063c.117.019.125.014.228-.152.059-.095.131-.171.162-.171a.23.23 0 0 1 .114.043c.051.037.054.063.024.192a1.64 1.64 0 0 0-.036.218c0 .04.039.092.096.125a.52.52 0 0 0 .118.057c.011 0 .087-.061.169-.136s.174-.131.205-.125.072.037.093.069c.029.045.015.1-.057.248-.093.19-.093.19.004.288s.098.097.288.004c.148-.073.203-.085.248-.057.031.02.062.062.069.093s-.051.123-.125.205a.99.99 0 0 0-.136.169c0 .011.025.064.057.118s.085.097.125.096a1.43 1.43 0 0 0 .218-.035c.129-.03.156-.026.192.024.023.032.042.083.042.114s-.075.102-.167.159c-.136.085-.167.121-.167.197 0 .051.015.116.032.143s.106.056.238.067c.148.012.217.033.243.075s.026.075.002.113c-.019.03-.117.08-.217.11-.182.055-.182.055-.182.201s0 .146.183.208a.97.97 0 0 1 .213.093c.017.017.022.068.01.113-.018.074-.041.083-.226.097-.15.011-.218.032-.251.077-.025.034-.046.097-.046.139 0 .055.047.107.167.186.092.06.167.132.167.161s-.018.079-.042.111c-.039.054-.062.055-.251.016-.194-.04-.21-.039-.255.022-.026.036-.055.093-.064.127-.011.04.029.111.115.204.072.078.131.162.131.186s-.024.071-.054.103c-.052.057-.063.055-.25-.039-.196-.099-.196-.099-.3-.006s-.105.093-.01.285c.074.15.086.205.059.25-.019.032-.062.062-.093.069s-.122-.049-.202-.123c-.095-.088-.167-.129-.207-.118a.45.45 0 0 0-.126.064c-.06.044-.061.064-.025.255.028.15.029.219.002.251-.019.024-.07.044-.111.044-.053 0-.105-.048-.178-.167s-.125-.167-.181-.167c-.043 0-.111.023-.152.052-.062.044-.075.083-.075.25 0 .185-.006.2-.086.22-.049.012-.103.005-.125-.017s-.063-.117-.091-.213c-.052-.174-.052-.174-.199-.174s-.148 0-.199.167c-.029.092-.063.186-.078.209s-.053.042-.084.041-.074-.012-.093-.025zm.974-.827c.109-.028.324-.112.476-.186.206-.101.338-.197.518-.376a2.79 2.79 0 0 0 .368-.458c.07-.119.16-.322.201-.451.061-.193.074-.311.074-.669-.001-.385-.011-.462-.09-.68a3.07 3.07 0 0 0-.2-.433 2.52 2.52 0 0 0-.331-.407c-.121-.12-.304-.268-.407-.329a3.03 3.03 0 0 0-.431-.2c-.217-.079-.295-.089-.68-.09-.358-.001-.476.012-.669.073-.129.041-.332.131-.451.201s-.324.233-.455.362c-.18.179-.272.305-.376.518a3.16 3.16 0 0 0-.189.481c-.028.11-.051.343-.051.52s.023.41.051.52.113.327.189.482c.107.218.197.342.394.538s.32.287.538.394a3.22 3.22 0 0 0 .467.187c.101.026.335.049.519.05.197.001.418-.019.535-.048zm-.954-.066c-.12-.024-.303-.082-.409-.128a2.51 2.51 0 0 1-.339-.187 2.71 2.71 0 0 1-.308-.261c-.087-.088-.216-.247-.285-.354a2.56 2.56 0 0 1-.218-.468c-.079-.232-.093-.33-.094-.642-.001-.293.015-.419.077-.618.042-.138.136-.35.207-.47a2.44 2.44 0 0 1 .358-.436 2.8 2.8 0 0 1 .382-.306c.084-.049.272-.13.417-.18.222-.076.321-.091.631-.092.262-.001.426.016.568.059.11.033.306.115.435.181a2.03 2.03 0 0 1 .486.373 2.03 2.03 0 0 1 .373.486c.067.129.148.324.181.435.043.143.06.306.059.568-.001.311-.016.41-.094.642-.051.151-.147.356-.214.456l-.206.279c-.046.054-.17.167-.274.252s-.285.2-.401.255a2.48 2.48 0 0 1-.469.153c-.142.029-.345.051-.451.05a2.77 2.77 0 0 1-.411-.047zm.705-1.597c.062-.042.147-.127.189-.189.053-.078.076-.162.076-.27a.45.45 0 0 0-.075-.268c-.041-.061-.118-.142-.17-.18-.07-.052-.144-.07-.29-.07s-.22.018-.29.07a.9.9 0 0 0-.17.18c-.051.074-.075.16-.075.26 0 .09.028.199.07.275a.62.62 0 0 0 .192.196.59.59 0 0 0 .276.071.45.45 0 0 0 .267-.075z"/><g transform="matrix(1.038137 0 0 1.057883 -.714345 -.199511)"><path d="M26.07 1.064s-1.035.027-1.91.224c-.437.098-.84.214-1.096.496-.128.141-.202.361-.149.567s.194.379.405.557c.358.301.544.555.603.73s.036.272-.088.42c-.247.297-.537.49-1.608.809l-.513.699c1.096-.325 2.101-.674 2.519-1.177.209-.251.288-.594.179-.917s-.364-.626-.759-.959c-.166-.139-.226-.247-.237-.291s-.014-.099.032-.147c.089-.098.428-.307.827-.397l1.804-.364c.508-.135-.008-.249-.008-.249z" fill="url(#A)"/><text xml:space="preserve" x="21.997" y="4.37" font-size="2.535" font-family="Gentium Basic" letter-spacing="0" word-spacing="0" writing-mode="lr-tb" fill="#3771c8"><tspan x="21.997" y="4.37" font-weight="normal" writing-mode="lr-tb">1</tspan></text><text xml:space="preserve" x="24.403" y="3.049" font-size="1.571" font-family="Noto Serif" letter-spacing="0" word-spacing="0" writing-mode="lr-tb" fill="#87aade"><tspan x="24.403" y="3.049" font-weight="normal" writing-mode="lr-tb">D</tspan></text></g><text xml:space="preserve" x="1.875" y="3.999" font-size="2.478" fill="#ddcdff" stroke="#82b366"><tspan x="1.875" y="3.999" font-weight="normal" font-family="hel" fill="#000" stroke="none">Recompile</tspan></text></svg>