<?xml version="1.0" encoding="UTF-8" standalone="no"?>
<!-- Created with Inkscape (http://www.inkscape.org/) -->

<svg
   width="104"
   height="25"
   viewBox="0 0 27.516666 6.6145833"
   version="1.1"
   id="svg11373"
   inkscape:version="1.2.2 (b0a8486, 2022-12-01)"
   sodipodi:docname="recompile.svg"
   xmlns:inkscape="http://www.inkscape.org/namespaces/inkscape"
   xmlns:sodipodi="http://sodipodi.sourceforge.net/DTD/sodipodi-0.dtd"
   xmlns:xlink="http://www.w3.org/1999/xlink"
   xmlns="http://www.w3.org/2000/svg"
   xmlns:svg="http://www.w3.org/2000/svg">
  <sodipodi:namedview
     id="namedview11375"
     pagecolor="#ffffff"
     bordercolor="#000000"
     borderopacity="0.25"
     inkscape:showpageshadow="2"
     inkscape:pageopacity="0.0"
     inkscape:pagecheckerboard="0"
     inkscape:deskcolor="#d1d1d1"
     inkscape:document-units="mm"
     showgrid="false"
     inkscape:zoom="9.8376523"
     inkscape:cx="24.345239"
     inkscape:cy="15.654141"
     inkscape:window-width="1440"
     inkscape:window-height="900"
     inkscape:window-x="0"
     inkscape:window-y="0"
     inkscape:window-maximized="0"
     inkscape:current-layer="layer1" />
  <defs
     id="defs11370">
    <linearGradient
       inkscape:collect="always"
       xlink:href="#linearGradient252075"
       id="linearGradient4236"
       gradientUnits="userSpaceOnUse"
       gradientTransform="matrix(0.10848629,0,0,0.10848629,14.98746,-9.5140399)"
       x1="75.848846"
       y1="132.66083"
       x2="100.97573"
       y2="84.279877" />
    <linearGradient
       inkscape:collect="always"
       id="linearGradient252075">
      <stop
         style="stop-color:#3771c8;stop-opacity:1;"
         offset="0"
         id="stop252071" />
      <stop
         style="stop-color:#3771c8;stop-opacity:0;"
         offset="1"
         id="stop252073" />
    </linearGradient>
  </defs>
  <g
     inkscape:label="Layer 1"
     inkscape:groupmode="layer"
     id="layer1">
    <rect
       width="27.516666"
       height="6.6145835"
       x="0"
       y="0"
       fill="#f95"
       fill-rule="evenodd"
       ry="0"
       id="rect123"
       style="fill:#ddcdff;fill-opacity:1;stroke-width:3.22056" />
    <path
       style="fill:#000000;stroke-width:0.0334312"
       d="m 15.934881,7.6132863 c -0.04938,-0.1608417 -0.09074,-0.2389413 -0.134722,-0.2529876 -0.03561,-0.011254 -0.09074,-0.011828 -0.12255,-0.00162 -0.03215,0.010327 -0.09991,0.093492 -0.151715,0.1849144 -0.05168,0.091423 -0.107958,0.1757032 -0.127271,0.187279 -0.01828,0.011606 -0.07236,0.011606 -0.119316,-3.339e-4 -0.08383,-0.021025 -0.085,-0.026766 -0.07351,-0.2773832 0.01147,-0.247452 0.009,-0.2576275 -0.07695,-0.3059584 -0.085,-0.048013 -0.09647,-0.044219 -0.277831,0.092916 -0.182629,0.1378466 -0.192145,0.1410054 -0.270938,0.089356 -0.04479,-0.029519 -0.08155,-0.068452 -0.08155,-0.086601 0,-0.018261 0.04594,-0.1151986 0.103355,-0.215455 0.06775,-0.1197586 0.09533,-0.2056104 0.08153,-0.2502427 -0.01148,-0.037329 -0.04824,-0.082 -0.08039,-0.099231 -0.03905,-0.02067 -0.129541,-0.013318 -0.270135,0.022175 -0.201568,0.050767 -0.21385,0.050302 -0.256927,-0.00847 -0.02526,-0.033999 -0.04479,-0.080165 -0.04479,-0.102564 0,-0.022499 0.07466,-0.1035994 0.167229,-0.1805955 0.106811,-0.089245 0.166997,-0.166101 0.166646,-0.212053 -2.74e-4,-0.039629 -0.01266,-0.091313 -0.02757,-0.1148542 -0.01501,-0.023434 -0.12371,-0.05823 -0.241885,-0.077177 -0.118079,-0.018846 -0.227302,-0.046862 -0.242686,-0.062137 -0.015,-0.015165 -0.02297,-0.063175 -0.01734,-0.1067003 0.0092,-0.06489 0.05054,-0.091655 0.228451,-0.1490561 0.172387,-0.055478 0.223739,-0.087974 0.248086,-0.1567982 0.02181,-0.061217 0.01828,-0.1022211 -0.01265,-0.1392157 -0.02412,-0.028829 -0.116809,-0.092338 -0.206394,-0.1410241 -0.119198,-0.06489 -0.162869,-0.1085375 -0.162869,-0.162794 0,-0.040768 0.02063,-0.091535 0.04594,-0.1126713 0.02757,-0.023083 0.137488,-0.034796 0.27358,-0.029177 0.213731,0.00877 0.230162,0.00423 0.276453,-0.076836 0.04709,-0.082234 0.04248,-0.095097 -0.09418,-0.2758678 -0.126208,-0.167233 -0.137712,-0.1964648 -0.09761,-0.2480332 0.02526,-0.032162 0.06085,-0.069025 0.07809,-0.08189 0.01828,-0.012753 0.114843,0.021024 0.214902,0.075232 0.09991,0.054206 0.207192,0.098658 0.23786,0.098658 0.03102,0 0.08154,-0.029177 0.113696,-0.064549 0.05397,-0.060299 0.05513,-0.076492 0.0051,-0.2475096 -0.02872,-0.1006144 -0.05283,-0.2046004 -0.05283,-0.2310177 0,-0.026413 0.04134,-0.066726 0.09074,-0.089586 0.08383,-0.038136 0.09762,-0.033655 0.169879,0.053178 0.04364,0.052027 0.114843,0.1372393 0.158605,0.1891637 0.06202,0.072821 0.09763,0.089245 0.156073,0.071437 0.04135,-0.012753 0.08843,-0.033998 0.102209,-0.047437 0.01499,-0.013317 0.0425,-0.123376 0.06316,-0.2442591 0.02872,-0.1726356 0.05054,-0.2234472 0.102209,-0.2369084 0.03561,-0.00939 0.08729,-0.00907 0.112548,8.959e-4 0.02527,0.00999 0.0712,0.1029095 0.101066,0.2066443 0.02986,0.1037128 0.06891,0.2074031 0.08729,0.2304073 0.01828,0.023083 0.07581,0.041808 0.12727,0.041808 0.07924,0 0.110254,-0.029752 0.20042,-0.1864307 0.05857,-0.102564 0.126332,-0.1939639 0.150238,-0.2031427 0.02413,-0.00907 0.07581,2.341e-4 0.113696,0.021025 0.06316,0.033999 0.07005,0.062478 0.06085,0.2935775 -0.0092,0.2500358 -0.0073,0.2566055 0.07924,0.2877422 0.07581,0.02734 0.11255,0.014245 0.255206,-0.090385 0.09188,-0.067302 0.188583,-0.1222858 0.215467,-0.1222858 0.02642,0 0.07351,0.027684 0.104502,0.06133 0.05168,0.057425 0.04938,0.072587 -0.04479,0.2423754 -0.05513,0.099575 -0.09991,0.2050947 -0.09991,0.2344165 -3.34e-4,0.029518 0.02986,0.080628 0.0666,0.1140497 0.06432,0.057768 0.07695,0.058 0.266921,0.00516 0.110252,-0.030549 0.207309,-0.055588 0.216262,-0.055588 0.0092,0 0.04248,0.039397 0.07351,0.08752 0.05743,0.08752 0.05743,0.08752 -0.137933,0.2608206 -0.193764,0.1719374 -0.194912,0.1740609 -0.148059,0.2718244 0.04135,0.087409 0.0712,0.1023357 0.264048,0.1320708 0.216849,0.033536 0.216849,0.033536 0.216849,0.1472312 0,0.1104898 -0.006,0.1156927 -0.217293,0.1837541 -0.201567,0.06501 -0.217998,0.077754 -0.227537,0.175186 -0.0095,0.096478 0.0064,0.1152324 0.192263,0.2280637 0.111402,0.067644 0.202481,0.1415804 0.202481,0.1643102 0,0.022741 -0.02063,0.069137 -0.04479,0.103139 -0.03904,0.053289 -0.0758,0.059039 -0.263704,0.041465 -0.183777,-0.016989 -0.227067,-0.01094 -0.272431,0.039164 -0.02988,0.032737 -0.05398,0.082463 -0.05398,0.1106045 0,0.027915 0.05398,0.1218593 0.120137,0.2083776 0.08729,0.1149911 0.114844,0.1782539 0.101065,0.2351398 -0.01057,0.042836 -0.04479,0.087288 -0.07464,0.09889 -0.03216,0.012166 -0.129539,-0.021025 -0.23384,-0.079943 -0.09877,-0.055478 -0.199388,-0.1009558 -0.224302,-0.1009558 -0.02526,0 -0.07236,0.029752 -0.105665,0.06593 -0.05628,0.061905 -0.05628,0.078561 -0.0071,0.2751658 0.04824,0.1912995 0.04824,0.2142937 -8.27e-4,0.2683558 -0.02988,0.032506 -0.07809,0.05915 -0.107959,0.05915 -0.02986,0 -0.112549,-0.075232 -0.182278,-0.1671703 -0.09877,-0.129669 -0.148269,-0.1671695 -0.22006,-0.1671695 -0.05055,0 -0.107959,0.018845 -0.126333,0.041808 -0.01828,0.023082 -0.04479,0.1245352 -0.05741,0.2256645 -0.01383,0.1011868 -0.03903,0.2026918 -0.05743,0.2256637 -0.01828,0.023083 -0.06891,0.041808 -0.11255,0.041808 -0.06775,0 -0.08844,-0.030892 -0.149181,-0.2326812 z m 0.3031,-1.4472392 c 0.06085,-0.041344 0.139901,-0.1148646 0.175715,-0.1633326 0.03561,-0.048466 0.07236,-0.1542246 0.08155,-0.2350248 0.01031,-0.090737 -0.0026,-0.1928158 -0.0333,-0.2668739 -0.02755,-0.06593 -0.106811,-0.1633095 -0.176418,-0.2163023 -0.105663,-0.080397 -0.158161,-0.096368 -0.31872,-0.096368 -0.142878,0 -0.216732,0.017907 -0.286788,0.069945 -0.05168,0.038478 -0.128301,0.1196648 -0.169645,0.1804472 -0.05283,0.078097 -0.07464,0.159383 -0.07464,0.2771411 0,0.1092261 0.02297,0.2045419 0.06775,0.2766598 0.03791,0.060531 0.116344,0.1410285 0.175505,0.1788955 0.07236,0.046166 0.163668,0.069026 0.278059,0.069369 0.122551,4.046e-4 0.201686,-0.020671 0.281044,-0.074656 z m 3.055312,-0.4183997 c -0.02061,-0.013317 -0.04593,-0.11451 -0.05743,-0.2244246 -0.01383,-0.1338264 -0.03905,-0.2139022 -0.07809,-0.2423754 -0.03216,-0.023436 -0.09303,-0.042493 -0.136784,-0.042493 -0.05857,0 -0.105663,0.043412 -0.182511,0.1671704 -0.07464,0.1194821 -0.125186,0.1671694 -0.178363,0.1671694 -0.04134,0 -0.09303,-0.021932 -0.114845,-0.048577 -0.03101,-0.037902 -0.03101,-0.089245 0.0012,-0.2339001 0.03674,-0.1648843 0.03561,-0.192392 -0.01616,-0.2490026 -0.03217,-0.035028 -0.08844,-0.071669 -0.125537,-0.081436 -0.04823,-0.0124 -0.110254,0.021256 -0.210521,0.1137042 -0.07809,0.072245 -0.162286,0.1314271 -0.186403,0.1314271 -0.02413,0 -0.0712,-0.024354 -0.103356,-0.054096 -0.05743,-0.051684 -0.05628,-0.061107 0.02297,-0.2161881 0.04479,-0.089245 0.08269,-0.1916344 0.08269,-0.2276984 0,-0.036068 -0.03905,-0.096358 -0.08729,-0.1340686 -0.08729,-0.068574 -0.08729,-0.068574 -0.274274,0.030096 -0.174004,0.091655 -0.191347,0.094753 -0.247162,0.044218 -0.0333,-0.029751 -0.05972,-0.076725 -0.05972,-0.1039422 0,-0.02733 0.05857,-0.1137054 0.131396,-0.1921733 0.09188,-0.1002721 0.126123,-0.1627586 0.113696,-0.2105044 -0.01,-0.037329 -0.04479,-0.092807 -0.07925,-0.1231348 -0.05285,-0.048013 -0.085,-0.050191 -0.249004,-0.016083 -0.14541,0.030095 -0.199037,0.029752 -0.236598,-0.0012 -0.02642,-0.022175 -0.04824,-0.073737 -0.04824,-0.1147382 0,-0.053288 0.04824,-0.1040584 0.167115,-0.17838 0.123711,-0.076835 0.16723,-0.1243526 0.16723,-0.1824801 0,-0.04318 -0.01946,-0.1050911 -0.04364,-0.1376277 -0.02986,-0.041 -0.106811,-0.06489 -0.251299,-0.077985 -0.185254,-0.016758 -0.210309,-0.027683 -0.228451,-0.1001505 -0.01121,-0.044684 -0.0068,-0.095096 0.0103,-0.1119828 0.01711,-0.016758 0.112549,-0.058575 0.21317,-0.092684 0.182608,-0.062024 0.182608,-0.062024 0.182608,-0.2057948 0,-0.1437385 0,-0.1437385 -0.16723,-0.1916899 -0.09188,-0.026413 -0.187904,-0.067998 -0.213286,-0.092575 -0.02872,-0.028254 -0.0379,-0.076262 -0.02413,-0.1310587 0.02061,-0.080742 0.03444,-0.086369 0.219708,-0.086369 0.166761,0 0.206277,-0.011841 0.250036,-0.07431 0.02872,-0.040889 0.05168,-0.1086511 0.05168,-0.150756 0,-0.055704 -0.04479,-0.1042879 -0.167113,-0.1792872 -0.122094,-0.075115 -0.16723,-0.1235259 -0.16723,-0.1794698 0,-0.042151 0.01946,-0.093031 0.04365,-0.113245 0.03216,-0.026416 0.101065,-0.026187 0.251068,0.00187 0.190668,0.03549 0.210638,0.033423 0.254632,-0.025843 0.02641,-0.03549 0.05512,-0.090388 0.06316,-0.122068 0.0095,-0.034916 -0.03674,-0.1170594 -0.117373,-0.2085847 -0.07351,-0.083039 -0.12795,-0.1758299 -0.121976,-0.2062432 0.006,-0.030437 0.03674,-0.0715534 0.06775,-0.0914226 0.04479,-0.0282538 0.09991,-0.0155164 0.246707,0.0566239 0.189286,0.092801 0.189286,0.092801 0.268527,0.018492 0.04364,-0.0408871 0.07925,-0.10440266 0.07925,-0.14091431 0,-0.0365226 -0.03905,-0.13286334 -0.08613,-0.21399412 -0.08269,-0.14093775 -0.08383,-0.15042322 -0.02872,-0.21187085 0.03216,-0.0353751 0.08039,-0.0643188 0.107959,-0.0643188 0.02755,0 0.113697,0.0591485 0.192144,0.13142659 0.09991,0.0923418 0.162752,0.12617953 0.210521,0.1137054 0.03791,-0.009728 0.09303,-0.0452516 0.123125,-0.0787893 0.04824,-0.0530614 0.05054,-0.0854502 0.01616,-0.24906005 -0.03101,-0.14752857 -0.02986,-0.19885798 0.0026,-0.23814912 0.02297,-0.02768 0.07351,-0.0455968 0.111399,-0.0400837 0.04019,0.005764 0.111402,0.0760339 0.17009,0.16813281 0.07695,0.12069882 0.120595,0.15832657 0.185841,0.15880931 0.04709,3.3656e-4 0.111401,-0.0182587 0.141965,-0.0412327 0.03674,-0.0276801 0.06432,-0.11278606 0.07809,-0.25131118 0.01946,-0.18561513 0.03102,-0.21183535 0.103357,-0.22988973 0.04479,-0.0112531 0.09533,-0.006675 0.1114,0.0103405 0.01711,0.0167591 0.05857,0.11278612 0.09303,0.21317864 0.06202,0.18257061 0.06202,0.18257061 0.20778,0.18257061 0.145737,0 0.145737,0 0.197441,-0.17448459 0.02872,-0.096019 0.06891,-0.19190845 0.09073,-0.21317832 0.02297,-0.022173 0.07581,-0.0295184 0.125302,-0.0169921 0.07924,0.0201108 0.08612,0.0354903 0.08612,0.21316912 2.74e-4,0.10543544 0.01266,0.21092852 0.02755,0.2345656 0.015,0.0236612 0.08153,0.051799 0.14874,0.062711 0.117021,0.0191728 0.125302,0.0136647 0.227982,-0.15160665 0.05857,-0.094526 0.131393,-0.17132754 0.16205,-0.17132754 0.03102,0 0.08153,0.0191728 0.113697,0.0427253 0.05054,0.0367533 0.05397,0.0634013 0.02411,0.19222953 -0.01828,0.0822345 -0.03444,0.18013565 -0.03561,0.21755671 -4.71e-4,0.0401986 0.03906,0.0915373 0.09647,0.12535149 0.05283,0.0315856 0.106811,0.0573124 0.117726,0.0573124 0.01121,0 0.08729,-0.0614474 0.168729,-0.13646801 0.08153,-0.0751147 0.173537,-0.13149701 0.204661,-0.12535149 0.03102,0.006076 0.07236,0.0369828 0.09302,0.0685673 0.02872,0.0446778 0.015,0.0996938 -0.05743,0.24778512 -0.09303,0.19038027 -0.09303,0.19038027 0.0037,0.28753593 0.09762,0.097165 0.09762,0.097165 0.287593,0.00396 0.148152,-0.0727035 0.203069,-0.0853355 0.247739,-0.057199 0.03101,0.0197583 0.06202,0.0615622 0.06891,0.0926861 0.006,0.031125 -0.05055,0.1231698 -0.125302,0.2046002 -0.07463,0.081431 -0.136458,0.1573843 -0.136458,0.1687188 0,0.011254 0.02526,0.064319 0.05743,0.1177596 0.03444,0.057312 0.08499,0.096708 0.125302,0.096247 0.03791,-4.502e-4 0.135283,-0.016431 0.217529,-0.03526 0.128744,-0.029748 0.15551,-0.026417 0.192262,0.024005 0.02297,0.032159 0.04248,0.083383 0.04248,0.1138201 0,0.030551 -0.07464,0.1022198 -0.167112,0.1593835 -0.136223,0.084647 -0.167115,0.121159 -0.166646,0.1972152 2.65e-4,0.051338 0.015,0.1158751 0.03216,0.1434289 0.02063,0.032159 0.105664,0.056165 0.238437,0.066845 0.147705,0.011841 0.217201,0.033423 0.243488,0.07523 0.02526,0.040658 0.02642,0.075228 0.0022,0.1133611 -0.01946,0.030092 -0.116694,0.079592 -0.2172,0.1098 -0.18249,0.055014 -0.18249,0.055014 -0.18249,0.2010743 0,0.146083 0,0.146083 0.182606,0.2081254 0.09991,0.034109 0.196293,0.075807 0.21317,0.092685 0.01711,0.016758 0.02181,0.067533 0.01003,0.1125566 -0.01828,0.073618 -0.04134,0.083494 -0.226037,0.096822 -0.150238,0.010941 -0.217762,0.031699 -0.251185,0.077299 -0.02527,0.034342 -0.04594,0.097054 -0.04594,0.139363 0,0.055478 0.04709,0.1073889 0.16655,0.1858215 0.09188,0.059837 0.166881,0.1323684 0.167114,0.1610243 3.32e-4,0.028601 -0.01828,0.078792 -0.04248,0.1114078 -0.03904,0.054096 -0.06202,0.055478 -0.250613,0.016434 -0.193879,-0.040083 -0.210287,-0.038589 -0.255432,0.022499 -0.02642,0.035836 -0.05512,0.092916 -0.06431,0.1269007 -0.01108,0.040425 0.02872,0.1110634 0.114843,0.204335 0.07236,0.078451 0.131394,0.1622997 0.131394,0.1863731 0,0.024 -0.02413,0.070632 -0.05397,0.1034833 -0.05168,0.056971 -0.06316,0.055246 -0.250036,-0.039286 -0.196061,-0.099 -0.196061,-0.099 -0.300228,-0.00576 -0.104516,0.093149 -0.104516,0.093149 -0.01003,0.2853764 0.07351,0.1496898 0.08612,0.205003 0.05857,0.249703 -0.01946,0.031588 -0.06202,0.062368 -0.09303,0.068574 -0.03102,0.00604 -0.122081,-0.049273 -0.202153,-0.1230773 -0.09533,-0.087974 -0.166762,-0.1285084 -0.207308,-0.1176683 -0.03444,0.00907 -0.09074,0.038015 -0.126215,0.064314 -0.05972,0.043987 -0.06085,0.063972 -0.02526,0.2546534 0.02757,0.1501489 0.02872,0.2190383 0.0018,0.2510355 -0.01946,0.024354 -0.07005,0.044108 -0.1114,0.044108 -0.05283,0 -0.104517,-0.047668 -0.178365,-0.1671694 -0.07581,-0.1226509 -0.124506,-0.1671694 -0.181456,-0.1671694 -0.0425,0 -0.111401,0.023437 -0.151833,0.052027 -0.06202,0.043876 -0.07464,0.083273 -0.07464,0.2500934 0,0.184879 -0.0059,0.1995006 -0.08612,0.2196445 -0.04938,0.012401 -0.103357,0.00516 -0.125303,-0.016989 -0.02181,-0.021256 -0.06316,-0.1172078 -0.09074,-0.2131687 -0.05168,-0.1744848 -0.05168,-0.1744848 -0.199386,-0.1744848 -0.147708,0 -0.147708,0 -0.199038,0.1671694 -0.02872,0.091878 -0.06316,0.1859486 -0.07809,0.2089528 -0.015,0.023083 -0.05283,0.041576 -0.08383,0.041232 -0.03102,-2.672e-4 -0.07351,-0.011606 -0.09303,-0.02493 z m 0.97419,-0.8272334 c 0.109104,-0.027683 0.323885,-0.1115224 0.476181,-0.1860392 0.206279,-0.1009577 0.338473,-0.1968825 0.51822,-0.3759737 0.132659,-0.1322183 0.29816,-0.338117 0.367761,-0.4575187 0.07005,-0.119392 0.159755,-0.3223937 0.200652,-0.4511102 0.06087,-0.1926332 0.07351,-0.3108513 0.07351,-0.6686203 C 21.903073,2.3958985 21.892842,2.3187052 21.814212,2.1013451 21.76598,1.9664847 21.675483,1.7714395 21.614474,1.667922 21.55361,1.5644383 21.404305,1.3813855 21.283007,1.2612142 21.161714,1.1410542 20.97876,0.99278964 20.876313,0.93172213 20.774099,0.87061902 20.57976,0.78074823 20.44492,0.73194554 c -0.217293,-0.0786746 -0.294597,-0.0888954 -0.679815,-0.0895852 -0.35777,-6.7182e-4 -0.475955,0.0121664 -0.668564,0.0732773 -0.128745,0.0407724 -0.331583,0.13103756 -0.4508,0.20059233 -0.119226,0.0694866 -0.323885,0.232625 -0.454937,0.3623976 -0.180214,0.1786214 -0.271627,0.3045572 -0.376259,0.5181846 -0.0758,0.1552257 -0.160902,0.3718845 -0.188699,0.4814779 -0.02757,0.1095703 -0.05055,0.3433664 -0.05055,0.5195167 0,0.1761636 0.02297,0.4099243 0.05055,0.5195175 0.02757,0.1095705 0.112548,0.326609 0.18905,0.4822812 0.106811,0.2178197 0.197326,0.3417812 0.393607,0.5380556 0.196058,0.1961007 0.320439,0.2870763 0.538087,0.3937753 0.155745,0.076261 0.365807,0.1604171 0.46688,0.1868554 0.101065,0.026413 0.334912,0.049152 0.519483,0.050302 0.196504,0.00131 0.418182,-0.018845 0.534872,-0.048234 z m -0.95409,-0.066151 C 19.193836,4.8302617 19.010065,4.7726045 18.904857,4.7259374 18.7992,4.6793073 18.646897,4.595303 18.565467,4.5392645 18.48393,4.4832117 18.345524,4.3656283 18.257659,4.2779264 18.170369,4.1901745 18.041394,4.0310835 17.972247,3.9243041 17.90334,3.8174901 17.804781,3.6068949 17.753804,3.4562639 c -0.07925,-0.2323836 -0.09302,-0.329595 -0.09418,-0.6416178 -9.02e-4,-0.2929107 0.01499,-0.4187559 0.07695,-0.618475 0.04248,-0.1379047 0.135754,-0.3495799 0.206865,-0.4703827 0.0712,-0.12079 0.232224,-0.3168005 0.358112,-0.4355476 0.125889,-0.1187258 0.297701,-0.2562385 0.381888,-0.30555651 0.08384,-0.0492719 0.271743,-0.13039278 0.416804,-0.18020594 0.222473,-0.0763769 0.321359,-0.0908488 0.631465,-0.0919964 0.261522,-0.001049 0.425762,0.015845 0.568296,0.0588055 0.110253,0.0331922 0.305855,0.11473818 0.434606,0.1811692 0.154948,0.0800529 0.319289,0.20612831 0.486175,0.37310171 0.166994,0.1669517 0.293105,0.3312952 0.373159,0.4862211 0.0666,0.1287288 0.148035,0.3242775 0.181129,0.4346061 0.0425,0.1429109 0.05972,0.3062916 0.05857,0.5683299 -0.0014,0.3110583 -0.01616,0.4099696 -0.09418,0.6417329 -0.05054,0.1506996 -0.147472,0.3557127 -0.214318,0.4556128 -0.06663,0.099919 -0.159308,0.2255143 -0.205599,0.279174 -0.04593,0.053631 -0.169527,0.1671351 -0.273925,0.2521615 -0.104503,0.085108 -0.28472,0.1997063 -0.400721,0.2548368 -0.115993,0.055124 -0.326875,0.123985 -0.468604,0.1530645 -0.14173,0.029177 -0.344791,0.051452 -0.451377,0.049727 -0.106809,-0.00171 -0.291382,-0.02273 -0.410943,-0.04663 z m 0.704626,-1.5974646 c 0.06202,-0.041808 0.147004,-0.1267742 0.188817,-0.1888086 0.05285,-0.077643 0.07581,-0.1618506 0.07581,-0.2700548 0,-0.1080787 -0.02297,-0.1918403 -0.07464,-0.2677808 -0.04134,-0.060758 -0.117725,-0.1420044 -0.169644,-0.1804474 -0.07005,-0.052257 -0.14391,-0.069946 -0.290122,-0.069946 -0.146207,0 -0.219593,0.017578 -0.290122,0.069946 -0.05168,0.038476 -0.128302,0.119666 -0.169644,0.1804474 -0.05054,0.07385 -0.07464,0.1600257 -0.07464,0.2598218 0,0.089931 0.02757,0.1991909 0.07005,0.2747067 0.03904,0.069025 0.125301,0.1571988 0.192262,0.1960099 0.07464,0.043412 0.180895,0.070863 0.275533,0.071327 0.105663,5.246e-4 0.189285,-0.023082 0.266692,-0.075232 z"
       id="path4249" />
    <g
       id="g24645"
       transform="matrix(1.0381369,0,0,1.0578829,-0.71434507,-0.19951051)">
      <path
         style="color:#000000;font-style:normal;font-variant:normal;font-weight:normal;font-stretch:normal;font-size:medium;line-height:normal;font-family:sans-serif;font-variant-ligatures:normal;font-variant-position:normal;font-variant-caps:normal;font-variant-numeric:normal;font-variant-alternates:normal;font-feature-settings:normal;text-indent:0;text-align:start;text-decoration:none;text-decoration-line:none;text-decoration-style:solid;text-decoration-color:#000000;letter-spacing:normal;word-spacing:normal;text-transform:none;writing-mode:lr-tb;direction:ltr;text-orientation:mixed;dominant-baseline:auto;baseline-shift:baseline;text-anchor:start;white-space:normal;shape-padding:0;clip-rule:nonzero;display:inline;overflow:visible;visibility:visible;isolation:auto;mix-blend-mode:normal;color-interpolation:sRGB;color-interpolation-filters:linearRGB;solid-color:#000000;solid-opacity:1;vector-effect:none;fill:url(#linearGradient4236);fill-opacity:1;fill-rule:nonzero;stroke:none;stroke-width:0.516936;stroke-linecap:butt;stroke-linejoin:miter;stroke-miterlimit:4;stroke-dasharray:none;stroke-dashoffset:0;stroke-opacity:1;color-rendering:auto;image-rendering:auto;shape-rendering:auto;text-rendering:auto;enable-background:accumulate"
         d="m 26.070004,1.0640006 c 0,0 -1.035297,0.027095 -1.909745,0.2241591 -0.437274,0.098476 -0.839941,0.2144363 -1.095635,0.4960298 -0.127846,0.1408141 -0.202421,0.3611471 -0.149359,0.5667951 0.0535,0.205671 0.193872,0.379294 0.405172,0.557267 0.357699,0.301447 0.54372,0.55516 0.603032,0.730161 0.05919,0.175 0.03643,0.271575 -0.08765,0.420164 -0.246929,0.297179 -0.53666,0.49044 -1.608138,0.808532 l -0.513329,0.698774 c 1.095749,-0.325298 2.101243,-0.674173 2.518913,-1.176975 0.208902,-0.25139 0.288481,-0.593742 0.179072,-0.916627 -0.109283,-0.322907 -0.363731,-0.625971 -0.759338,-0.95942 -0.165528,-0.139492 -0.226211,-0.247269 -0.23748,-0.291122 -0.01138,-0.04383 -0.01371,-0.09859 0.03187,-0.147475 0.08879,-0.09779 0.427827,-0.3067977 0.826508,-0.3966434 0.797476,-0.1797022 1.804392,-0.3642554 1.804392,-0.3642554 0.507973,-0.135487 -0.0084,-0.2493981 -0.0084,-0.2493981 z"
         id="path252059-3-3"
         inkscape:connector-curvature="0"
         sodipodi:nodetypes="cscssscccccccccccc"
         inkscape:export-xdpi="60.07"
         inkscape:export-ydpi="60.07" />
      <text
         xml:space="preserve"
         style="font-style:normal;font-variant:normal;font-weight:normal;font-stretch:normal;font-size:2.53503px;line-height:1;font-family:'Gentium Basic';-inkscape-font-specification:'Gentium Basic, Normal';font-variant-ligatures:normal;font-variant-caps:normal;font-variant-numeric:normal;font-feature-settings:normal;text-align:start;letter-spacing:0px;word-spacing:0px;writing-mode:lr-tb;text-anchor:start;fill:#3771c8;fill-opacity:1;stroke:none;stroke-width:0.0287037"
         x="21.996992"
         y="4.3698936"
         id="text252063-8-9"
         inkscape:export-xdpi="60.07"
         inkscape:export-ydpi="60.07"><tspan
           sodipodi:role="line"
           id="tspan252061-0-9"
           x="21.996992"
           y="4.3698936"
           style="font-style:normal;font-variant:normal;font-weight:normal;font-stretch:normal;font-size:2.53503px;font-family:'Gentium Basic';-inkscape-font-specification:'Gentium Basic, Normal';font-variant-ligatures:normal;font-variant-caps:normal;font-variant-numeric:normal;font-feature-settings:normal;text-align:start;writing-mode:lr-tb;text-anchor:start;fill:#3771c8;fill-opacity:1;stroke-width:0.0287037">1</tspan></text>
      <text
         xml:space="preserve"
         style="font-style:normal;font-variant:normal;font-weight:normal;font-stretch:normal;font-size:1.57063px;line-height:1;font-family:'Noto Serif';-inkscape-font-specification:'Noto Serif, Normal';font-variant-ligatures:normal;font-variant-caps:normal;font-variant-numeric:normal;font-feature-settings:normal;text-align:start;letter-spacing:0px;word-spacing:0px;writing-mode:lr-tb;text-anchor:start;fill:#87aade;fill-opacity:1;stroke:none;stroke-width:0.0287037"
         x="24.402815"
         y="3.0492473"
         id="text252067-2-7"
         inkscape:export-xdpi="60.07"
         inkscape:export-ydpi="60.07"><tspan
           sodipodi:role="line"
           id="tspan252065-4-0"
           x="24.402815"
           y="3.0492473"
           style="font-style:normal;font-variant:normal;font-weight:normal;font-stretch:normal;font-size:1.57063px;font-family:'Noto Serif';-inkscape-font-specification:'Noto Serif, Normal';font-variant-ligatures:normal;font-variant-caps:normal;font-variant-numeric:normal;font-feature-settings:normal;text-align:start;writing-mode:lr-tb;text-anchor:start;fill:#87aade;stroke-width:0.0287037">D</tspan></text>
    </g>
    <text
       xml:space="preserve"
       style="font-size:2.47805px;fill:#ddcdff;fill-opacity:1;stroke:#82b366;stroke-width:0;stroke-dasharray:none"
       x="1.8746696"
       y="3.999404"
       id="text5821"><tspan
         sodipodi:role="line"
         id="tspan5819"
         x="1.8746696"
         y="3.999404"
         style="font-style:normal;font-variant:normal;font-weight:normal;font-stretch:normal;font-size:2.47805px;font-family:hel;-inkscape-font-specification:hel;fill:#000000;fill-opacity:1;stroke:none;stroke-width:0">Recompile</tspan></text>
  </g>
</svg>
