<svg xmlns="http://www.w3.org/2000/svg" width="63" height="25" viewBox="0 0 16.669 6.615" xmlns:v="https://vecta.io/nano"><defs><linearGradient id="A" x1="23.216" y1="4.878" x2="25.942" y2="-.371" gradientUnits="userSpaceOnUse"><stop offset="0" stop-color="#3771c8"/><stop offset="1" stop-color="#3771c8" stop-opacity="0"/></linearGradient></defs><g transform="matrix(1.038137 0 0 1.057883 -11.562262 -.199511)"><path d="M26.07 1.064s-1.035.027-1.91.224c-.437.098-.84.214-1.096.496-.128.141-.202.361-.149.567s.194.379.405.557c.358.301.544.555.603.73s.036.272-.088.42c-.247.297-.537.49-1.608.809l-.513.699c1.096-.325 2.101-.674 2.519-1.177.209-.251.288-.594.179-.917s-.364-.626-.759-.959c-.166-.139-.226-.247-.237-.291s-.014-.099.032-.147c.089-.098.428-.307.827-.397l1.804-.364c.508-.135-.008-.249-.008-.249z" fill="url(#A)"/><text xml:space="preserve" x="21.997" y="4.37" font-size="2.535" font-family="Gentium Basic" letter-spacing="0" word-spacing="0" writing-mode="lr-tb" fill="#3771c8"><tspan x="21.997" y="4.37" font-weight="normal" writing-mode="lr-tb">1</tspan></text><text xml:space="preserve" x="24.403" y="3.049" font-size="1.571" font-family="Noto Serif" letter-spacing="0" word-spacing="0" writing-mode="lr-tb" fill="#87aade"><tspan x="24.403" y="3.049" font-weight="normal" writing-mode="lr-tb">D</tspan></text></g><path fill="#3771c8" d="M7.954.613l1.579.973a.316.316 0 0 0 .417-.075 3.664 3.664 0 0 1 .325-.379l.016-.013c.06.06.189.189.347.426a10.759 10.759 0 0 1 1.017 1.943 2.148 2.148 0 0 1 .085.291 2.514 2.514 0 0 1-.357.057c-.316.031-.739.044-1.163.031a9.518 9.518 0 0 1-1.156-.094 2.486 2.486 0 0 1-.354-.079l.016-.063a4.422 4.422 0 0 1 .231-.528.316.316 0 0 0-.113-.411l-1.573-.97a.164.164 0 0 1-.057-.237l.502-.815a.164.164 0 0 1 .237-.057z" font-family="sans-serif"/><text xml:space="preserve" x="0.971" y="2.874" font-size="1.649" fill="#ddcdff" stroke="#82b366"><tspan x="0.971" y="2.874" fill="#000"><tspan x="0.971" y="2.874" font-family="hel" stroke="none">Save as</tspan></tspan><tspan x="0.971" y="4.936" fill="#000" stroke="none">defaults</tspan></text></svg>