<svg xmlns="http://www.w3.org/2000/svg" width="320" height="120" viewBox="0 0 84.667 31.75" xmlns:v="https://vecta.io/nano"><style><![CDATA[.B{font-weight:bold}.C{writing-mode:lr-tb}.D{font-weight:400}.E{font-family:Helvetica}.F{text-anchor:middle}]]></style><defs><linearGradient id="A" x1="23.216" y1="4.878" x2="25.942" y2="-.371" gradientUnits="userSpaceOnUse"><stop offset="0" stop-color="#3771c8"/><stop offset="1" stop-color="#3771c8" stop-opacity="0"/></linearGradient></defs><g transform="matrix(2.883714 0 0 2.938564 -45.073314 12.110085)"><path d="M26.07 1.064s-1.035.027-1.91.224c-.437.098-.84.214-1.096.496-.128.141-.202.361-.149.567s.194.379.405.557c.358.301.544.555.603.73s.036.272-.088.42c-.247.297-.537.49-1.608.809l-.513.699c1.096-.325 2.101-.674 2.519-1.177.209-.251.288-.594.179-.917s-.364-.626-.759-.959c-.166-.139-.226-.247-.237-.291s-.014-.099.032-.147c.089-.098.428-.307.827-.397l1.804-.364c.508-.135-.008-.249-.008-.249z" fill="url(#A)"/><text xml:space="preserve" x="21.997" y="4.37" font-size="2.535" font-family="Gentium Basic" letter-spacing="0" word-spacing="0" fill="#3771c8" class="C"><tspan x="21.997" y="4.37" font-weight="normal" class="C">1</tspan></text><text xml:space="preserve" x="24.403" y="3.049" font-size="1.571" font-family="Noto Serif" letter-spacing="0" word-spacing="0" fill="#87aade" class="C"><tspan x="24.403" y="3.049" font-weight="normal" class="C">D</tspan></text></g><text xml:space="preserve" x="42.363" y="7.908" font-size="3.532" fill="#3771c8" stroke="#82b366"><tspan x="42.363" y="7.908" font-weight="normal" fill="#000" stroke="none" class="E F">Model to <tspan class="B">S</tspan>imulate <tspan class="B">O</tspan>rganic vapours,</tspan><tspan x="42.363" y="12.421" font-weight="normal" fill="#000" stroke="none" class="E F"><tspan class="B">S</tspan>ulphuric <tspan class="B">A</tspan>cid and <tspan class="B">A</tspan>erosols</tspan></text><text xml:space="preserve" x="51.238" y="25.081" font-size="8.819" fill="#000" class="B E F"><tspan x="51.238" y="25.081">SOSAA</tspan></text></svg>